<?xml version="1.0" encoding="UTF-8"?>
<svg id="Layer_1" data-name="Layer 1" xmlns="http://www.w3.org/2000/svg" viewBox="0 0 512 512">
  <defs>
    <style>
      .cls-1 {
        fill: #0450b3;
      }

      .cls-2 {
        fill: #fff;
      }

      .cls-3 {
        fill: #056cf2;
      }
    </style>
  </defs>
  <g>
    <rect class="cls-3" x="2.5" y="2.5" width="507" height="507" rx="47.5" ry="47.5"/>
    <path class="cls-1" d="M462,5c24.81,0,45,20.19,45,45v412c0,24.81-20.19,45-45,45H50c-24.81,0-45-20.19-45-45V50C5,25.19,25.19,5,50,5h412M462,0H50C22.39,0,0,22.39,0,50v412c0,27.61,22.39,50,50,50h412c27.61,0,50-22.39,50-50V50c0-27.61-22.39-50-50-50h0Z"/>
  </g>
  <path class="cls-2" d="M143.21,427.83l47.97-343.67h71.5l-39.21,281.39h145.31l-8.76,62.28h-216.81Z"/>
</svg>