<?xml version="1.0" encoding="UTF-8"?>
<svg id="Layer_1" data-name="Layer 1" xmlns="http://www.w3.org/2000/svg" viewBox="0 0 512 512">
  <defs>
    <style>
      .cls-1 {
        fill: #daa0f2;
      }

      .cls-2 {
        fill: #ae41dc;
      }
    </style>
  </defs>
  <path class="cls-1" d="M386.16,504.5c-17.11,0-33.52-4.46-48.77-13.26L76.75,340.75c-30.64-17.69-48.93-49.38-48.93-84.76,0-35.38,18.29-67.05,48.93-84.74L337.39,20.77c15.25-8.81,31.66-13.27,48.78-13.27,25.04,0,49.9,10.06,68.21,27.61,19.22,18.43,29.81,43.43,29.81,70.41v300.97c0,26.97-10.59,51.98-29.82,70.4-18.31,17.54-43.17,27.61-68.21,27.61Z"/>
  <path class="cls-2" d="M386.17,15c23.12,0,46.09,9.3,63.01,25.52,17.73,17,27.5,40.08,27.5,64.99v300.97c0,24.91-9.77,47.99-27.5,64.99-16.93,16.22-39.9,25.52-63.02,25.52-15.78,0-30.92-4.12-45.02-12.26L80.5,334.26c-28.29-16.34-45.18-45.59-45.18-78.26,0-32.66,16.89-61.91,45.18-78.24L341.14,27.27c14.09-8.14,29.24-12.26,45.03-12.27h0M386.17,0c-17.54,0-35.55,4.47-52.53,14.28L73,164.76c-70.24,40.54-70.24,141.93,0,182.49l260.64,150.49c16.98,9.8,34.98,14.27,52.52,14.27,55.03,0,105.53-44.01,105.53-105.51V105.52C491.69,44.01,441.2,0,386.17,0h0Z"/>
</svg>